<svg width="248" height="269" viewBox="0 0 248 269" fill="none" xmlns="http://www.w3.org/2000/svg">
<path d="M180.102 242.102C179.908 242.485 179.577 242.782 179.175 242.934L178.714 243.108C178.593 243.153 178.495 243.244 178.44 243.36V243.36C178.327 243.598 178.421 243.882 178.647 244.018C180.799 245.31 182.457 247.293 183.345 249.651C184.128 251.724 184.278 253.983 183.776 256.141C183.275 258.3 182.145 260.261 180.529 261.778C178.913 263.294 176.884 264.297 174.697 264.66C172.511 265.023 170.267 264.729 168.247 263.816C166.228 262.904 164.525 261.413 163.353 259.532C162.181 257.651 161.593 255.465 161.664 253.25C161.734 251.035 162.46 248.891 163.749 247.089C165.039 245.286 166.833 243.906 168.907 243.124C171.346 242.203 173.918 242.193 176.239 242.93C176.491 243.01 176.765 242.892 176.87 242.65V242.65C176.92 242.532 176.924 242.398 176.878 242.278L176.705 241.82C176.553 241.416 176.559 240.969 176.722 240.57L182.833 225.62C183.291 224.5 184.626 224.031 185.684 224.619L186.54 225.094C187.489 225.621 187.851 226.804 187.361 227.773L180.102 242.102ZM170.124 246.349C166.108 247.865 164.09 252.33 165.605 256.345C167.121 260.361 171.586 262.379 175.601 260.864C179.617 259.349 181.635 254.884 180.12 250.868C178.604 246.852 174.139 244.834 170.124 246.349Z" fill="#D5DD18"/>
<path fill-rule="evenodd" clip-rule="evenodd" d="M178.668 251.999C177.809 248.794 174.515 246.892 171.311 247.751C168.106 248.609 166.204 251.903 167.063 255.108C167.921 258.313 171.215 260.214 174.42 259.356C177.625 258.497 179.527 255.203 178.668 251.999ZM180.619 251.476C179.472 247.193 175.07 244.652 170.788 245.8C166.506 246.947 163.964 251.349 165.112 255.631C166.259 259.913 170.661 262.454 174.943 261.307C179.225 260.16 181.766 255.758 180.619 251.476Z" fill="#D5DD18"/>
<path d="M151.421 245.685C153.533 245.685 155.213 246.374 156.463 247.753C157.734 249.11 158.37 250.985 158.37 253.377V263.913H152.875V254.12C152.875 252.913 152.563 251.976 151.938 251.308C151.313 250.64 150.473 250.306 149.417 250.306C148.362 250.306 147.521 250.64 146.896 251.308C146.272 251.976 145.959 252.913 145.959 254.12V263.913H140.433V245.878H145.959V248.27C146.519 247.473 147.273 246.848 148.222 246.396C149.17 245.922 150.236 245.685 151.421 245.685Z" fill="#142832"/>
<path d="M132.711 244.004C131.741 244.004 130.944 243.724 130.319 243.164C129.716 242.582 129.414 241.871 129.414 241.031C129.414 240.169 129.716 239.458 130.319 238.898C130.944 238.316 131.741 238.025 132.711 238.025C133.659 238.025 134.435 238.316 135.038 238.898C135.663 239.458 135.975 240.169 135.975 241.031C135.975 241.871 135.663 242.582 135.038 243.164C134.435 243.724 133.659 244.004 132.711 244.004ZM135.458 245.879V263.913H129.931V245.879H135.458Z" fill="#142832"/>
<path d="M126.057 241.225V245.652H116.814V250.436H123.73V254.734H116.814V263.913H111.287V241.225H126.057Z" fill="#142832"/>
<path d="M103.565 244.004C102.596 244.004 101.799 243.724 101.174 243.164C100.571 242.582 100.269 241.871 100.269 241.031C100.269 240.169 100.571 239.458 101.174 238.898C101.799 238.316 102.596 238.025 103.565 238.025C104.514 238.025 105.289 238.316 105.892 238.898C106.517 239.458 106.83 240.169 106.83 241.031C106.83 241.871 106.517 242.582 105.892 243.164C105.289 243.724 104.514 244.004 103.565 244.004ZM106.313 245.879V263.913H100.786V245.879H106.313Z" fill="#142832"/>
<path d="M96.738 259.227V263.913H93.9263C91.9225 263.913 90.3604 263.428 89.24 262.459C88.1196 261.467 87.5593 259.862 87.5593 257.643V250.468H85.3616V245.879H87.5593V241.483H93.0859V245.879H96.7057V250.468H93.0859V257.708C93.0859 258.246 93.2152 258.634 93.4738 258.871C93.7323 259.108 94.1633 259.227 94.7666 259.227H96.738Z" fill="#142832"/>
<path d="M77.4197 248.884C78.0661 247.893 78.8741 247.117 79.8437 246.557C80.8133 245.975 81.8906 245.685 83.0756 245.685V251.534H81.5566C80.1776 251.534 79.1434 251.836 78.4539 252.439C77.7645 253.021 77.4197 254.055 77.4197 255.542V263.913H71.8931V245.878H77.4197V248.884Z" fill="#142832"/>
<path d="M57.153 258.027H44.7162L42.7225 263.913H34.2255L46.2826 230.59H55.6815L67.7386 263.913H59.1467L57.153 258.027ZM55.0644 251.761L50.9346 239.561L46.8523 251.761H55.0644Z" fill="#142832"/>
<path d="M133.337 106.555C133.215 107.021 132.929 107.428 132.532 107.7L129.282 109.928C128.855 110.221 128.557 110.67 128.453 111.177V111.177C128.24 112.217 128.876 113.242 129.89 113.556C139.566 116.554 147.969 122.737 153.711 131.127C158.766 138.502 161.521 147.211 161.627 156.151C161.733 165.092 159.185 173.863 154.306 181.355C149.427 188.848 142.435 194.726 134.216 198.245C125.996 201.764 116.918 202.767 108.129 201.126C99.3391 199.486 91.2335 195.276 84.8368 189.029C78.44 182.782 74.0394 174.778 72.1913 166.03C70.3433 157.282 71.1309 148.182 74.4546 139.882C77.7782 131.581 83.4885 124.453 90.8635 119.398C99.5436 113.448 109.614 110.939 119.422 111.604C120.48 111.676 121.442 110.948 121.617 109.902V109.902C121.703 109.391 121.588 108.865 121.295 108.437L119.086 105.214C118.802 104.801 118.684 104.296 118.756 103.799L123.331 71.9282L127.903 45.9994C128.889 40.4034 134.226 36.6669 139.822 37.6536V37.6536C145.74 38.6971 149.508 44.5687 147.991 50.3833L133.337 106.555ZM98.7278 130.871C84.4434 140.662 80.8163 160.097 90.6074 174.381C100.398 188.665 119.833 192.293 134.117 182.501C148.402 172.71 152.029 153.276 142.238 138.991C132.447 124.707 113.012 121.08 98.7278 130.871Z" fill="#D5DD18"/>
<circle cx="115.488" cy="156.317" r="31.3881" transform="rotate(-118.753 115.488 156.317)" stroke="#D5DD18" stroke-width="2"/>
<path d="M132.03 142.464L106.604 137.981C104.606 137.629 102.683 138.975 102.331 140.973L97.8479 166.399C97.4956 168.397 98.8419 170.319 100.84 170.672L126.266 175.155C128.263 175.507 130.186 174.161 130.538 172.163L135.022 146.737C135.374 144.739 134.028 142.817 132.03 142.464ZM116.65 165.969L107.569 164.368C106.57 164.192 105.897 163.23 106.073 162.231C106.249 161.232 107.211 160.559 108.209 160.735L117.29 162.337C118.289 162.513 118.962 163.474 118.786 164.473C118.61 165.472 117.649 166.145 116.65 165.969ZM123.379 159.665L108.85 157.103C107.851 156.927 107.178 155.966 107.354 154.967C107.53 153.968 108.492 153.295 109.49 153.471L124.02 156.033C125.018 156.209 125.692 157.17 125.515 158.169C125.339 159.168 124.378 159.841 123.379 159.665ZM124.66 152.4L110.131 149.839C109.132 149.662 108.459 148.701 108.635 147.702C108.811 146.703 109.772 146.03 110.771 146.206L125.3 148.768C126.299 148.944 126.973 149.906 126.796 150.905C126.62 151.903 125.659 152.577 124.66 152.4Z" fill="#D5DD18"/>
</svg>
