<svg width="126" height="126" viewBox="0 0 126 126" fill="none" xmlns="http://www.w3.org/2000/svg">
<path d="M66.9548 51.7562C66.916 52.2362 66.7053 52.6862 66.3613 53.0233L64.9198 54.4363C64.701 54.6508 64.574 54.9418 64.5653 55.248C64.5477 55.8757 65.0239 56.405 65.6468 56.4839C71.5776 57.2351 77.0943 59.9676 81.2913 64.2554C84.9855 68.024 87.4791 72.8035 88.457 77.9894C89.4348 83.1752 88.8529 88.5346 86.7848 93.3898C84.7168 98.2449 81.2554 102.378 76.8385 105.266C72.4216 108.154 67.2475 109.667 61.9705 109.614C56.6935 109.562 51.5506 107.945 47.1922 104.97C42.8338 101.994 39.4556 97.7932 37.4848 92.8978C35.5141 88.0023 35.0392 82.6324 36.1204 77.4671C37.2015 72.3017 39.7901 67.573 43.5587 63.8788C47.9933 59.5319 53.5881 57.0417 59.3559 56.4224C59.9802 56.3554 60.4663 55.8354 60.4611 55.2075C60.4586 54.9009 60.3373 54.6071 60.1226 54.3881L58.7329 52.9704C58.3819 52.6124 58.1782 52.1355 58.1622 51.6343L57.5652 32.9595L57.5652 17.4198C57.5652 14.0659 60.284 11.3471 63.6378 11.3471C67.1846 11.3471 69.9765 14.3738 69.6907 17.909L66.9548 51.7562ZM49.3058 69.7418C42.0064 76.8969 41.89 88.565 49.0451 95.8643C56.2002 103.164 67.8683 103.28 75.1677 96.125C82.467 88.9699 82.5835 77.3018 75.4284 70.0025C68.2733 62.7031 56.6052 62.5867 49.3058 69.7418Z" fill="#D5DD18"/>
<path d="M50.3158 68.6868C58.1185 62.4239 69.5209 63.6721 75.7837 71.4748C82.0466 79.2775 80.7984 90.6799 72.9957 96.9427C65.193 103.206 53.7906 101.957 47.5278 94.1547C41.2649 86.352 42.5131 74.9496 50.3158 68.6868Z" stroke="#D5DD18" stroke-width="2"/>
<path d="M69.7734 72.6177H54.535C53.3377 72.6177 52.3581 73.5973 52.3581 74.7946V90.033C52.3581 91.2303 53.3377 92.2099 54.535 92.2099H69.7734C70.9707 92.2099 71.9503 91.2303 71.9503 90.033V74.7946C71.9503 73.5973 70.9707 72.6177 69.7734 72.6177ZM63.2427 87.8561H57.8004C57.2017 87.8561 56.7119 87.3663 56.7119 86.7676C56.7119 86.169 57.2017 85.6792 57.8004 85.6792H63.2427C63.8413 85.6792 64.3311 86.169 64.3311 86.7676C64.3311 87.3663 63.8413 87.8561 63.2427 87.8561ZM66.508 83.5022H57.8004C57.2017 83.5022 56.7119 83.0124 56.7119 82.4138C56.7119 81.8151 57.2017 81.3253 57.8004 81.3253H66.508C67.1067 81.3253 67.5965 81.8151 67.5965 82.4138C67.5965 83.0124 67.1067 83.5022 66.508 83.5022ZM66.508 79.1484H57.8004C57.2017 79.1484 56.7119 78.6586 56.7119 78.06C56.7119 77.4613 57.2017 76.9715 57.8004 76.9715H66.508C67.1067 76.9715 67.5965 77.4613 67.5965 78.06C67.5965 78.6586 67.1067 79.1484 66.508 79.1484Z" fill="#D5DD18"/>
</svg>
